<svg xmlns="http://www.w3.org/2000/svg" version="1.1" xmlns:xlink="http://www.w3.org/1999/xlink" xmlns:svgjs="http://svgjs.dev/svgjs" width="1500" height="757" viewBox="0 0 1500 757"><g transform="matrix(1,0,0,1,-0.9090909090909918,-0.5493047887323996)"><svg viewBox="0 0 396 200" data-background-color="#fafafa" preserveAspectRatio="xMidYMid meet" height="757" width="1500" xmlns="http://www.w3.org/2000/svg" xmlns:xlink="http://www.w3.org/1999/xlink"><g id="tight-bounds" transform="matrix(1,0,0,1,0.2400000000000091,0.14512676056338591)"><svg viewBox="0 0 395.52 199.70974647887323" height="199.70974647887323" width="395.52"><g><svg viewBox="0 0 395.52 199.70974647887323" height="199.70974647887323" width="395.52"><g><svg viewBox="0 0 395.52 199.70974647887323" height="199.70974647887323" width="395.52"><g id="textblocktransform"><svg viewBox="0 0 395.52 199.70974647887323" height="199.70974647887323" width="395.52" id="textblock"><g><svg viewBox="0 0 395.52 199.70974647887323" height="199.70974647887323" width="395.52"><g transform="matrix(1,0,0,1,0,0)"><svg width="395.52" viewBox="1.49 -35.01 69.33 35.01" height="199.70974647887323" data-palette-color="#111111"><path d="M21.46-29.1L11.45-19.04 21.41-10.01 16.55-4.59 1.49-18.75 16.21-34.06 21.46-29.1ZM46.99-35.01L32.49 0 25.29 0 39.79-35.01 46.99-35.01ZM60.86-19.04L50.85-29.1 56.1-34.06 70.82-18.75 55.76-4.59 50.9-10.01 60.86-19.04Z" opacity="1" transform="matrix(1,0,0,1,0,0)" fill="#111111" class="wordmark-text-0" data-fill-palette-color="primary" id="text-0"></path></svg></g></svg></g></svg></g></svg></g><g></g></svg></g><defs></defs></svg><rect width="395.52" height="199.70974647887323" fill="none" stroke="none" visibility="hidden"></rect></g></svg></g></svg>